<svg width="257.482056" height="198.491699" viewBox="0 0 257.482 198.492" fill="none" xmlns="http://www.w3.org/2000/svg" xmlns:xlink="http://www.w3.org/1999/xlink">
	<desc>
			Created with Pixso.
	</desc>
	<defs/>
	<rect id="Rectangle 142" width="34.864273" height="144.437698" transform="matrix(-0.965926 0.258819 0.258819 0.965926 220.099 0)" fill="#FFBB4D" fill-opacity="1.000000"/>
	<rect id="Rectangle 143" width="34.864273" height="144.437698" transform="matrix(-0.965926 0.258819 0.258819 0.965926 182.814 9.99023)" fill="#FFBB4D" fill-opacity="1.000000"/>
	<rect id="Rectangle 144" width="34.864273" height="144.437698" transform="matrix(-0.965926 0.258819 0.258819 0.965926 145.53 19.981)" fill="#F2F2F2" fill-opacity="1.000000"/>
	<rect id="Rectangle 145" width="34.864273" height="144.437698" transform="matrix(-0.965926 0.258819 0.258819 0.965926 108.245 29.9712)" fill="#F2F2F2" fill-opacity="1.000000"/>
	<rect id="Rectangle 146" width="34.864273" height="144.437698" transform="matrix(-0.965926 0.258819 0.258819 0.965926 70.9608 39.9614)" fill="#F2F2F2" fill-opacity="1.000000"/>
	<rect id="Rectangle 147" width="34.864273" height="144.437698" transform="matrix(-0.965926 0.258819 0.258819 0.965926 33.6763 49.9517)" fill="#F2F2F2" fill-opacity="1.000000"/>
	<rect id="Rectangle 150" width="18.999990" height="93.000000" transform="matrix(-0.965926 0.258819 0.258819 0.965926 57.3809 98.5166)" fill="#FF5E3A" fill-opacity="1.000000"/>
	<rect id="Rectangle 150" width="18.999990" height="93.000000" transform="matrix(-0.965926 0.258819 0.258819 0.965926 57.3809 98.5166)" stroke="#FFFFFF" stroke-opacity="1.000000" stroke-width="2.000000"/>
	<rect id="Rectangle 151" width="17.999990" height="93.000000" transform="matrix(-0.965926 0.258819 0.258819 0.965926 131.757 78.5874)" fill="#FF5E3A" fill-opacity="1.000000"/>
	<rect id="Rectangle 151" width="17.999990" height="93.000000" transform="matrix(-0.965926 0.258819 0.258819 0.965926 131.757 78.5874)" stroke="#FFFFFF" stroke-opacity="1.000000" stroke-width="2.000000"/>
	<rect id="Rectangle 152" width="17.999990" height="93.000000" transform="matrix(-0.965926 0.258819 0.258819 0.965926 206.134 58.6582)" fill="#FF5E3A" fill-opacity="1.000000"/>
	<rect id="Rectangle 152" width="17.999990" height="93.000000" transform="matrix(-0.965926 0.258819 0.258819 0.965926 206.134 58.6582)" stroke="#FFFFFF" stroke-opacity="1.000000" stroke-width="2.000000"/>
</svg>
