<svg width="1440" height="370" viewBox="0 0 1440 370" fill="none" xmlns="http://www.w3.org/2000/svg">
<path d="M1440 10.9995L1.0231e-06 10.9998L9.04573e-07 8.99976L1440 8.99951V10.9995Z" fill="url(#paint0_linear_373_307)"/>
<path d="M1440 185L1.0231e-06 185L9.58971e-07 183L1440 183V185Z" fill="url(#paint1_linear_373_307)"/>
<path d="M9.75275e-07 359L1440 358.999V356.999L9.53359e-07 357L9.75275e-07 359Z" fill="url(#paint2_linear_373_307)"/>
<path d="M1440 97.9998L1.0231e-06 98.0002L9.5312e-07 96.0002L1440 95.9998V97.9998Z" fill="url(#paint3_linear_373_307)"/>
<path d="M2.19163e-08 272L1440 271.999V269.999L0 270L2.19163e-08 272Z" fill="url(#paint4_linear_373_307)"/>
<rect x="281" y="44" width="22" height="22" fill="white"/>
<rect x="147" y="173" width="22" height="22" fill="white"/>
<rect x="1088" width="22" height="22" fill="white"/>
<rect x="1178" y="348" width="22" height="22" fill="white"/>
<rect x="1270" y="216" width="22" height="22" fill="white"/>
<defs>
<linearGradient id="paint0_linear_373_307" x1="-2.68226e-06" y1="184" x2="1440" y2="184" gradientUnits="userSpaceOnUse">
<stop stop-color="white"/>
<stop offset="0.279944" stop-color="white" stop-opacity="0"/>
<stop offset="0.72048" stop-color="white" stop-opacity="0"/>
<stop offset="1" stop-color="white"/>
</linearGradient>
<linearGradient id="paint1_linear_373_307" x1="-2.68226e-06" y1="184" x2="1440" y2="184" gradientUnits="userSpaceOnUse">
<stop stop-color="white"/>
<stop offset="0.279944" stop-color="white" stop-opacity="0"/>
<stop offset="0.72048" stop-color="white" stop-opacity="0"/>
<stop offset="1" stop-color="white"/>
</linearGradient>
<linearGradient id="paint2_linear_373_307" x1="-2.68226e-06" y1="184" x2="1440" y2="184" gradientUnits="userSpaceOnUse">
<stop stop-color="white"/>
<stop offset="0.279944" stop-color="white" stop-opacity="0"/>
<stop offset="0.72048" stop-color="white" stop-opacity="0"/>
<stop offset="1" stop-color="white"/>
</linearGradient>
<linearGradient id="paint3_linear_373_307" x1="-2.68226e-06" y1="184" x2="1440" y2="184" gradientUnits="userSpaceOnUse">
<stop stop-color="white"/>
<stop offset="0.279944" stop-color="white" stop-opacity="0"/>
<stop offset="0.72048" stop-color="white" stop-opacity="0"/>
<stop offset="1" stop-color="white"/>
</linearGradient>
<linearGradient id="paint4_linear_373_307" x1="-2.68226e-06" y1="184" x2="1440" y2="184" gradientUnits="userSpaceOnUse">
<stop stop-color="white"/>
<stop offset="0.279944" stop-color="white" stop-opacity="0"/>
<stop offset="0.72048" stop-color="white" stop-opacity="0"/>
<stop offset="1" stop-color="white"/>
</linearGradient>
</defs>
</svg>
