<svg width="768" height="364" viewBox="0 0 768 364" fill="none" xmlns="http://www.w3.org/2000/svg">
<path d="M768 8L5.45653e-07 8.00024L4.82439e-07 6.00024L768 6V8Z" fill="url(#paint0_linear_938_447)"/>
<path d="M768 182L5.45653e-07 182.001L5.11451e-07 180.001L768 180V182Z" fill="url(#paint1_linear_938_447)"/>
<path d="M5.20147e-07 356L768 356V354L5.08458e-07 354L5.20147e-07 356Z" fill="url(#paint2_linear_938_447)"/>
<path d="M768 95.0002L5.45653e-07 95.0007L5.08331e-07 93.0007L768 93.0002V95.0002Z" fill="url(#paint3_linear_938_447)"/>
<path d="M1.16887e-08 269L768 269V267L0 267L1.16887e-08 269Z" fill="url(#paint4_linear_938_447)"/>
<rect x="82" y="42" width="15" height="15" fill="white"/>
<rect x="25" y="174" width="15" height="15" fill="white"/>
<rect x="604" width="15" height="15" fill="white"/>
<rect x="660" y="349" width="15" height="15" fill="white"/>
<defs>
<linearGradient id="paint0_linear_938_447" x1="-1.43054e-06" y1="181" x2="768" y2="181" gradientUnits="userSpaceOnUse">
<stop stop-color="white"/>
<stop offset="0.279944" stop-color="white" stop-opacity="0"/>
<stop offset="0.72048" stop-color="white" stop-opacity="0"/>
<stop offset="1" stop-color="white"/>
</linearGradient>
<linearGradient id="paint1_linear_938_447" x1="-1.43054e-06" y1="181" x2="768" y2="181" gradientUnits="userSpaceOnUse">
<stop stop-color="white"/>
<stop offset="0.279944" stop-color="white" stop-opacity="0"/>
<stop offset="0.72048" stop-color="white" stop-opacity="0"/>
<stop offset="1" stop-color="white"/>
</linearGradient>
<linearGradient id="paint2_linear_938_447" x1="-1.43054e-06" y1="181" x2="768" y2="181" gradientUnits="userSpaceOnUse">
<stop stop-color="white"/>
<stop offset="0.279944" stop-color="white" stop-opacity="0"/>
<stop offset="0.72048" stop-color="white" stop-opacity="0"/>
<stop offset="1" stop-color="white"/>
</linearGradient>
<linearGradient id="paint3_linear_938_447" x1="-1.43054e-06" y1="181" x2="768" y2="181" gradientUnits="userSpaceOnUse">
<stop stop-color="white"/>
<stop offset="0.279944" stop-color="white" stop-opacity="0"/>
<stop offset="0.72048" stop-color="white" stop-opacity="0"/>
<stop offset="1" stop-color="white"/>
</linearGradient>
<linearGradient id="paint4_linear_938_447" x1="-1.43054e-06" y1="181" x2="768" y2="181" gradientUnits="userSpaceOnUse">
<stop stop-color="white"/>
<stop offset="0.279944" stop-color="white" stop-opacity="0"/>
<stop offset="0.72048" stop-color="white" stop-opacity="0"/>
<stop offset="1" stop-color="white"/>
</linearGradient>
</defs>
</svg>
