<svg width="320" height="358" viewBox="0 0 320 358" fill="none" xmlns="http://www.w3.org/2000/svg">
<path d="M320 6L2.40142e-07 6.00024L2.01018e-07 4.00024L320 4L320 6Z" fill="url(#paint0_linear_1068_442)"/>
<path d="M320 180L1.3524e-06 180.001L1.32536e-06 178.001L320 178L320 180Z" fill="url(#paint1_linear_1068_442)"/>
<path d="M2.45402e-06 354L320 354L320 352L2.43636e-06 352L2.45402e-06 354Z" fill="url(#paint2_linear_1068_442)"/>
<path d="M320 93.0002L7.9627e-07 93.0007L7.67935e-07 91.0007L320 91.0002L320 93.0002Z" fill="url(#paint3_linear_1068_442)"/>
<path d="M1.68603e-06 267L320 267L320 265L1.66838e-06 265L1.68603e-06 267Z" fill="url(#paint4_linear_1068_442)"/>
<rect x="274" y="347" width="11" height="11" fill="white"/>
<rect x="273" width="11" height="11" fill="white"/>
<rect x="20" y="173" width="11" height="11" fill="white"/>
<rect x="39" y="41" width="11" height="11" fill="white"/>
<defs>
<linearGradient id="paint0_linear_1068_442" x1="5.22589e-07" y1="179" x2="320" y2="179" gradientUnits="userSpaceOnUse">
<stop stop-color="white"/>
<stop offset="0.279944" stop-color="white" stop-opacity="0"/>
<stop offset="0.72048" stop-color="white" stop-opacity="0"/>
<stop offset="1" stop-color="white"/>
</linearGradient>
<linearGradient id="paint1_linear_1068_442" x1="5.22589e-07" y1="179" x2="320" y2="179" gradientUnits="userSpaceOnUse">
<stop stop-color="white"/>
<stop offset="0.279944" stop-color="white" stop-opacity="0"/>
<stop offset="0.72048" stop-color="white" stop-opacity="0"/>
<stop offset="1" stop-color="white"/>
</linearGradient>
<linearGradient id="paint2_linear_1068_442" x1="5.22589e-07" y1="179" x2="320" y2="179" gradientUnits="userSpaceOnUse">
<stop stop-color="white"/>
<stop offset="0.279944" stop-color="white" stop-opacity="0"/>
<stop offset="0.72048" stop-color="white" stop-opacity="0"/>
<stop offset="1" stop-color="white"/>
</linearGradient>
<linearGradient id="paint3_linear_1068_442" x1="5.22589e-07" y1="179" x2="320" y2="179" gradientUnits="userSpaceOnUse">
<stop stop-color="white"/>
<stop offset="0.279944" stop-color="white" stop-opacity="0"/>
<stop offset="0.72048" stop-color="white" stop-opacity="0"/>
<stop offset="1" stop-color="white"/>
</linearGradient>
<linearGradient id="paint4_linear_1068_442" x1="5.22589e-07" y1="179" x2="320" y2="179" gradientUnits="userSpaceOnUse">
<stop stop-color="white"/>
<stop offset="0.279944" stop-color="white" stop-opacity="0"/>
<stop offset="0.72048" stop-color="white" stop-opacity="0"/>
<stop offset="1" stop-color="white"/>
</linearGradient>
</defs>
</svg>
