<svg width="1280" height="370" viewBox="0 0 1280 370" fill="none" xmlns="http://www.w3.org/2000/svg">
<path d="M1280 11L9.09422e-07 11.0002L8.04065e-07 9.00024L1280 9V11Z" fill="url(#paint0_linear_833_345)"/>
<path d="M1280 185L9.09422e-07 185.001L8.52418e-07 183.001L1280 183V185Z" fill="url(#paint1_linear_833_345)"/>
<path d="M8.66911e-07 359L1280 359V357L8.4743e-07 357L8.66911e-07 359Z" fill="url(#paint2_linear_833_345)"/>
<path d="M1280 98.0002L9.09422e-07 98.0007L8.47218e-07 96.0007L1280 96.0002V98.0002Z" fill="url(#paint3_linear_833_345)"/>
<path d="M1.94812e-08 272L1280 272V270L0 270L1.94812e-08 272Z" fill="url(#paint4_linear_833_345)"/>
<rect x="206" y="44" width="22" height="22" fill="white"/>
<rect x="72" y="173" width="22" height="22" fill="white"/>
<rect x="1013" width="22" height="22" fill="white"/>
<rect x="1103" y="348" width="22" height="22" fill="white"/>
<rect x="1195" y="216" width="22" height="22" fill="white"/>
<defs>
<linearGradient id="paint0_linear_833_345" x1="-2.38423e-06" y1="184" x2="1280" y2="184" gradientUnits="userSpaceOnUse">
<stop stop-color="white"/>
<stop offset="0.279944" stop-color="white" stop-opacity="0"/>
<stop offset="0.72048" stop-color="white" stop-opacity="0"/>
<stop offset="1" stop-color="white"/>
</linearGradient>
<linearGradient id="paint1_linear_833_345" x1="-2.38423e-06" y1="184" x2="1280" y2="184" gradientUnits="userSpaceOnUse">
<stop stop-color="white"/>
<stop offset="0.279944" stop-color="white" stop-opacity="0"/>
<stop offset="0.72048" stop-color="white" stop-opacity="0"/>
<stop offset="1" stop-color="white"/>
</linearGradient>
<linearGradient id="paint2_linear_833_345" x1="-2.38423e-06" y1="184" x2="1280" y2="184" gradientUnits="userSpaceOnUse">
<stop stop-color="white"/>
<stop offset="0.279944" stop-color="white" stop-opacity="0"/>
<stop offset="0.72048" stop-color="white" stop-opacity="0"/>
<stop offset="1" stop-color="white"/>
</linearGradient>
<linearGradient id="paint3_linear_833_345" x1="-2.38423e-06" y1="184" x2="1280" y2="184" gradientUnits="userSpaceOnUse">
<stop stop-color="white"/>
<stop offset="0.279944" stop-color="white" stop-opacity="0"/>
<stop offset="0.72048" stop-color="white" stop-opacity="0"/>
<stop offset="1" stop-color="white"/>
</linearGradient>
<linearGradient id="paint4_linear_833_345" x1="-2.38423e-06" y1="184" x2="1280" y2="184" gradientUnits="userSpaceOnUse">
<stop stop-color="white"/>
<stop offset="0.279944" stop-color="white" stop-opacity="0"/>
<stop offset="0.72048" stop-color="white" stop-opacity="0"/>
<stop offset="1" stop-color="white"/>
</linearGradient>
</defs>
</svg>
