<svg width="1440" height="350" viewBox="0 0 1440 350" fill="none" xmlns="http://www.w3.org/2000/svg">
<path d="M1440 1.99951L1.0231e-06 1.99976L9.04573e-07 -0.000244573L1440 -0.000488281V1.99951Z" fill="url(#paint0_linear_373_308)"/>
<path d="M1440 176L1.0231e-06 176L9.58971e-07 174L1440 174V176Z" fill="url(#paint1_linear_373_308)"/>
<path d="M9.75275e-07 350L1440 349.999V347.999L9.53359e-07 348L9.75275e-07 350Z" fill="url(#paint2_linear_373_308)"/>
<path d="M1440 88.9998L1.0231e-06 89.0002L9.5312e-07 87.0002L1440 86.9998V88.9998Z" fill="url(#paint3_linear_373_308)"/>
<path d="M2.19163e-08 263L1440 262.999V260.999L0 261L2.19163e-08 263Z" fill="url(#paint4_linear_373_308)"/>
<defs>
<linearGradient id="paint0_linear_373_308" x1="-2.68226e-06" y1="175" x2="1440" y2="175" gradientUnits="userSpaceOnUse">
<stop stop-color="white"/>
<stop offset="0.279944" stop-color="white" stop-opacity="0"/>
<stop offset="0.72048" stop-color="white" stop-opacity="0"/>
<stop offset="1" stop-color="white"/>
</linearGradient>
<linearGradient id="paint1_linear_373_308" x1="-2.68226e-06" y1="175" x2="1440" y2="175" gradientUnits="userSpaceOnUse">
<stop stop-color="white"/>
<stop offset="0.279944" stop-color="white" stop-opacity="0"/>
<stop offset="0.72048" stop-color="white" stop-opacity="0"/>
<stop offset="1" stop-color="white"/>
</linearGradient>
<linearGradient id="paint2_linear_373_308" x1="-2.68226e-06" y1="175" x2="1440" y2="175" gradientUnits="userSpaceOnUse">
<stop stop-color="white"/>
<stop offset="0.279944" stop-color="white" stop-opacity="0"/>
<stop offset="0.72048" stop-color="white" stop-opacity="0"/>
<stop offset="1" stop-color="white"/>
</linearGradient>
<linearGradient id="paint3_linear_373_308" x1="-2.68226e-06" y1="175" x2="1440" y2="175" gradientUnits="userSpaceOnUse">
<stop stop-color="white"/>
<stop offset="0.279944" stop-color="white" stop-opacity="0"/>
<stop offset="0.72048" stop-color="white" stop-opacity="0"/>
<stop offset="1" stop-color="white"/>
</linearGradient>
<linearGradient id="paint4_linear_373_308" x1="-2.68226e-06" y1="175" x2="1440" y2="175" gradientUnits="userSpaceOnUse">
<stop stop-color="white"/>
<stop offset="0.279944" stop-color="white" stop-opacity="0"/>
<stop offset="0.72048" stop-color="white" stop-opacity="0"/>
<stop offset="1" stop-color="white"/>
</linearGradient>
</defs>
</svg>
