<svg width="190" height="61" viewBox="0 0 190 61" fill="none" xmlns="http://www.w3.org/2000/svg">
<path fill-rule="evenodd" clip-rule="evenodd" d="M160.567 27.1309C169.979 23.8385 179.373 16.7147 187.216 3.72474L189.784 5.27535C181.627 18.7853 171.709 26.4114 161.558 29.9627C156.442 31.7524 151.3 32.4959 146.336 32.454C146.799 35.6445 146.647 38.858 145.672 41.9554C143.402 49.1736 136.824 55.284 124.424 58.9387C111.877 62.6368 100.308 60.556 89.4792 55.7451C78.6968 50.9546 68.558 43.4136 58.8464 36.1096C58.5784 35.908 58.3107 35.7066 58.0434 35.5055C48.5563 28.3682 39.4945 21.5508 30.4205 17.4857C22.3453 13.8681 14.3889 12.4894 6.22625 15.0031L15.1508 18.3991C15.925 18.6937 16.3139 19.5603 16.0192 20.3345C15.7246 21.1088 14.8581 21.4976 14.0838 21.203L1.46648 16.4017C0.692216 16.107 0.303403 15.2405 0.598036 14.4663L5.39934 1.84891C5.69397 1.07465 6.56048 0.685826 7.33475 0.98046C8.10901 1.27509 8.49783 2.1416 8.2032 2.91586L4.60465 12.3725C13.9062 9.26586 22.8823 10.8213 31.647 14.7479C41.0358 18.954 50.3369 25.9525 59.7072 33.003C60.0212 33.2393 60.3354 33.4757 60.6496 33.712C70.4067 41.0502 80.2785 48.3746 90.6973 53.0035C101.07 57.612 111.892 59.5047 123.576 56.0611C135.407 52.5741 140.944 46.9886 142.811 41.0552C143.684 38.2797 143.787 35.3253 143.279 32.3294C139.503 32.0541 135.859 31.3411 132.442 30.311C123.716 27.6805 116.369 22.9511 112.001 18.0088C109.824 15.5455 108.3 12.929 107.812 10.4032C107.31 7.80106 107.924 5.2979 109.983 3.39767C112.011 1.52518 114.665 0.956206 117.439 1.25466C120.193 1.55096 123.169 2.70462 126.089 4.41589C131.931 7.84011 137.873 13.6871 141.838 20.3789C143.537 23.2451 144.898 26.3119 145.72 29.444C150.566 29.5551 155.587 28.8733 160.567 27.1309ZM142.552 29.2587C141.804 26.7793 140.677 24.3035 139.257 21.9083C135.54 15.6355 129.958 10.1606 124.572 7.00413C121.878 5.42504 119.313 4.47364 117.118 4.23745C114.943 4.00343 113.239 4.47456 112.017 5.60207C110.826 6.70184 110.424 8.10493 110.758 9.8348C111.106 11.6411 112.27 13.7823 114.249 16.0222C118.194 20.4862 125.034 24.9443 133.308 27.4387C136.244 28.3239 139.348 28.9578 142.552 29.2587Z" fill="#FFBB4D"/>
</svg>
