<svg width="14.008179" height="24.000000" viewBox="0 0 14.0082 24" fill="none" xmlns="http://www.w3.org/2000/svg" xmlns:xlink="http://www.w3.org/1999/xlink">
	<desc>
			Created with Pixso.
	</desc>
	<defs/>
	<path id="Vector 4" d="M7.9841 22.98L8.00409 23C8.00409 23.5601 7.56409 24 7.00409 24C6.44409 24 6.00409 23.5601 6.00409 23L6.02408 22.98L7.9841 22.98ZM1.72678 7.94775L1.72745 7.97607C1.34079 8.38135 0.718689 8.39551 0.313599 8.00928C-0.0914612 7.62256 -0.105927 7.00049 0.280731 6.59521L0.309021 6.59473L1.72678 7.94775ZM13.6992 6.59473L13.7274 6.59521C14.1141 7.00049 14.0996 7.62256 13.6946 8.00928C13.2895 8.39551 12.6674 8.38135 12.2807 7.97607L12.2814 7.94775L13.6992 6.59473Z" fill="#FFFFFF" fill-opacity="1.000000" fill-rule="nonzero"/>
	<path id="Vector 4" d="M7.00409 23L7.00409 1M13.0041 7.28564L7.00409 1L1.00409 7.28564" stroke="#FF5E3A" stroke-opacity="1.000000" stroke-width="2.000000" stroke-linejoin="round"/>
</svg>
