<svg width="20.000000" height="16.000000" viewBox="0 0 20 16" fill="none" xmlns="http://www.w3.org/2000/svg" xmlns:xlink="http://www.w3.org/1999/xlink">
	<desc>
			Created with Pixso.
	</desc>
	<defs/>
	<path id="Vector" d="M1 4.2002C1 3.08008 1 2.51953 1.21796 2.0918C1.40973 1.71558 1.71545 1.40967 2.0918 1.21802C2.51959 1 3.08008 1 4.2002 1L15.8002 1C16.9203 1 17.4796 1 17.9074 1.21802C18.2837 1.40967 18.5905 1.71558 18.7822 2.0918C19 2.51929 19 3.0791 19 4.19702L19 11.8035C19 12.9214 19 13.4805 18.7822 13.908C18.5905 14.2842 18.2837 14.5906 17.9074 14.7822C17.48 15 16.921 15 15.8031 15L4.1969 15C3.07898 15 2.51923 15 2.0918 14.7822C1.71545 14.5906 1.40973 14.2842 1.21796 13.908C1 13.48 1 12.9204 1 11.8003L1 4.2002ZM2 2L8.10767 6.6123L8.10968 6.61401C8.78784 7.11133 9.12714 7.36011 9.49878 7.4563C9.82721 7.54126 10.1725 7.54126 10.501 7.4563C10.8729 7.36011 11.2132 7.11035 11.8926 6.6123C11.8926 6.6123 15.8101 3.60596 18 2" stroke="#FFBB4D" stroke-opacity="1.000000" stroke-width="2.000000" stroke-linejoin="round" stroke-linecap="round"/>
</svg>
