<svg width="43" height="43" viewBox="0 0 43 43" fill="none" xmlns="http://www.w3.org/2000/svg">
<path fill-rule="evenodd" clip-rule="evenodd" d="M43 21.5C43 33.3741 33.3741 43 21.5 43C9.62588 43 0 33.3741 0 21.5C0 9.62588 9.62588 0 21.5 0C33.3741 0 43 9.62588 43 21.5ZM21.7613 21.3912C23.755 21.3912 25.5494 20.5937 26.8544 19.2887C28.1594 17.9837 28.9569 16.1712 28.9569 14.1956C28.9569 12.2018 28.1594 10.4075 26.8544 9.10248C25.5494 7.7975 23.755 7 21.7613 7C19.7675 7 17.9732 7.7975 16.6682 9.10248C15.3632 10.4075 14.5657 12.2018 14.5657 14.1956C14.5657 16.1893 15.3632 17.9837 16.6682 19.2887C17.9732 20.5755 19.7675 21.3912 21.7613 21.3912ZM19.4594 11.8756C20.0575 11.2774 20.8732 10.915 21.7613 10.915C22.6675 10.915 23.4831 11.2774 24.0632 11.8756C24.6612 12.4737 25.0238 13.2893 25.0238 14.1774C25.0238 15.0656 24.6612 15.8993 24.0632 16.4793C23.465 17.0775 22.6494 17.4399 21.7613 17.4399C20.8551 17.4399 20.0394 17.0775 19.4594 16.4793C18.8613 15.8812 18.4988 15.0656 18.4988 14.1774C18.4988 13.2893 18.8613 12.4737 19.4594 11.8756ZM29.3193 21.4091L31.4399 24.291C31.5306 24.436 31.5124 24.6353 31.3674 24.7441C29.5912 26.1941 27.543 27.1547 25.3862 27.6622L29.8449 35.5103C29.9718 35.7278 29.8086 35.9997 29.5549 35.9997H25.1868C25.06 35.9997 24.9331 35.9272 24.8787 35.8003L21.7612 28.8403L18.6438 35.8003C18.5894 35.9272 18.4625 35.9997 18.3356 35.9997H13.9675C13.7137 35.9997 13.5507 35.7278 13.6594 35.5103L18.1181 27.6622C15.9612 27.1547 13.895 26.1941 12.1188 24.7441C11.9919 24.6353 11.9556 24.436 12.0644 24.291L14.1669 21.4091C14.2938 21.246 14.5294 21.2279 14.6744 21.3547C16.6681 23.0404 19.115 24.1459 21.7431 24.1459C24.3712 24.1459 26.8181 23.0585 28.8118 21.3547C28.9749 21.2279 29.1924 21.246 29.3193 21.4091Z" fill="white"/>
</svg>
