<svg width="43" height="43" viewBox="0 0 43 43" fill="none" xmlns="http://www.w3.org/2000/svg">
<path fill-rule="evenodd" clip-rule="evenodd" d="M43 21.5C43 33.3741 33.3741 43 21.5 43C9.62588 43 0 33.3741 0 21.5C0 9.62588 9.62588 0 21.5 0C33.3741 0 43 9.62588 43 21.5ZM35 21.1523C35 28.4162 29.0663 34.3046 21.7454 34.3046C19.4213 34.3046 17.2379 33.7106 15.3383 32.6681L8 35L10.3925 27.9434C9.1856 25.9616 8.4905 23.6372 8.4905 21.1523C8.4905 13.8884 14.4248 8 21.7454 8C29.0669 8 35 13.8884 35 21.1523ZM21.7454 10.5C15.6002 10.5 11 15.0551 11 21.1523C11 23.5718 11.6659 25.424 13 27.2468L12 31L15.5 30C17.2595 31.1553 19.4816 31.742 21.7454 31.742C27.8897 31.742 32.5 27.2495 32.5 21.1523C32.5 15.0551 27.8903 10.5 21.7454 10.5ZM27.9918 23.7425C27.9373 23.7164 27.8786 23.6882 27.8159 23.6571C27.4907 23.496 25.8929 22.7157 25.5959 22.6086C25.298 22.5012 25.0808 22.4472 24.8645 22.7697C24.6482 23.0925 24.0254 23.8182 23.8355 24.0333C23.6459 24.249 23.4566 24.276 23.1314 24.1146C23.0785 24.0883 23.0064 24.0573 22.9174 24.019C22.4605 23.8223 21.5578 23.4338 20.519 22.5147C19.5533 21.6603 18.9011 20.6055 18.7115 20.2824C18.5222 19.9599 18.6917 19.7856 18.854 19.6251C18.9519 19.5284 19.0643 19.3927 19.1765 19.2571C19.2321 19.19 19.2877 19.1228 19.3415 19.0605C19.481 18.8992 19.5406 18.7776 19.6225 18.6108C19.6363 18.5828 19.6506 18.5535 19.6661 18.5226C19.775 18.3075 19.7207 18.1194 19.6391 17.9577C19.5841 17.8482 19.2662 17.0808 18.9832 16.3976C18.8496 16.0752 18.7238 15.7716 18.6371 15.5646C18.3989 14.9967 18.1609 15.0121 17.9778 15.0239C17.9529 15.0255 17.929 15.027 17.9063 15.027C17.8148 15.027 17.7169 15.0207 17.6157 15.0142C17.5075 15.0072 17.3954 15 17.2835 15C17.0669 15 16.7147 15.0807 16.4168 15.4032C16.3939 15.4281 16.366 15.4572 16.3342 15.4906C15.9532 15.8896 15 16.8881 15 18.3519C15 19.9383 16.0628 21.4249 16.2257 21.6397C16.2338 21.6504 16.2472 21.6689 16.2658 21.6945C16.6205 22.1836 18.8615 25.2734 22 26.5C24.7869 27.5886 25.2944 27.4852 25.7427 27.3938C25.8258 27.3769 25.9069 27.3603 26 27.3519C26.5952 27.2982 27.9776 26.319 28.2494 25.5666C28.5194 24.813 28.5194 24.1677 28.4387 24.0333C28.3726 23.9251 28.2191 23.8515 27.9918 23.7425Z" fill="white"/>
</svg>
