<svg width="18.000000" height="20.000000" viewBox="0 0 18 20" fill="none" xmlns="http://www.w3.org/2000/svg" xmlns:xlink="http://www.w3.org/1999/xlink">
	<desc>
			Created with Pixso.
	</desc>
	<defs/>
	<path id="Vector" d="M6 4L9 1L12 4M9 11L9 1M14 8C14.9319 8 15.3978 8 15.7654 8.15234C16.2554 8.35547 16.6447 8.74463 16.8477 9.23486C16.9999 9.60254 17 10.0684 17 11L17 15.8032C17 16.9209 17 17.48 16.7822 17.9077C16.5905 18.2837 16.2842 18.5903 15.9078 18.7822C15.4805 19 14.9215 19 13.8036 19L4.1969 19C3.07898 19 2.51917 19 2.0918 18.7822C1.71545 18.5903 1.40979 18.2837 1.21802 17.9077C1 17.48 1 16.9199 1 15.7998L1 11C1 10.0684 1 9.60254 1.15222 9.23486C1.35522 8.74463 1.74475 8.35547 2.23486 8.15234C2.60242 8 3.06836 8 4.00024 8" stroke="#FFFFFF" stroke-opacity="1.000000" stroke-width="2.000000" stroke-linejoin="round"/>
</svg>
