<svg width="320" height="354" viewBox="0 0 320 354" fill="none" xmlns="http://www.w3.org/2000/svg">
<path d="M320 2L2.40142e-07 2.00024L2.01018e-07 0.000243708L320 4.90925e-06L320 2Z" fill="url(#paint0_linear_1068_442)"/>
<path d="M320 176L1.3524e-06 176.001L1.32536e-06 174.001L320 174L320 176Z" fill="url(#paint1_linear_1068_442)"/>
<path d="M2.45402e-06 350L320 350L320 348L2.43636e-06 348L2.45402e-06 350Z" fill="url(#paint2_linear_1068_442)"/>
<path d="M320 89.0002L7.9627e-07 89.0007L7.67935e-07 87.0007L320 87.0002L320 89.0002Z" fill="url(#paint3_linear_1068_442)"/>
<path d="M1.68603e-06 263L320 263L320 261L1.66838e-06 261L1.68603e-06 263Z" fill="url(#paint4_linear_1068_442)"/>
<rect x="274" y="343" width="11" height="11" fill="white"/>
<defs>
<linearGradient id="paint0_linear_1068_442" x1="5.22589e-07" y1="175" x2="320" y2="175" gradientUnits="userSpaceOnUse">
<stop stop-color="white"/>
<stop offset="0.279944" stop-color="white" stop-opacity="0"/>
<stop offset="0.72048" stop-color="white" stop-opacity="0"/>
<stop offset="1" stop-color="white"/>
</linearGradient>
<linearGradient id="paint1_linear_1068_442" x1="5.22589e-07" y1="175" x2="320" y2="175" gradientUnits="userSpaceOnUse">
<stop stop-color="white"/>
<stop offset="0.279944" stop-color="white" stop-opacity="0"/>
<stop offset="0.72048" stop-color="white" stop-opacity="0"/>
<stop offset="1" stop-color="white"/>
</linearGradient>
<linearGradient id="paint2_linear_1068_442" x1="5.22589e-07" y1="175" x2="320" y2="175" gradientUnits="userSpaceOnUse">
<stop stop-color="white"/>
<stop offset="0.279944" stop-color="white" stop-opacity="0"/>
<stop offset="0.72048" stop-color="white" stop-opacity="0"/>
<stop offset="1" stop-color="white"/>
</linearGradient>
<linearGradient id="paint3_linear_1068_442" x1="5.22589e-07" y1="175" x2="320" y2="175" gradientUnits="userSpaceOnUse">
<stop stop-color="white"/>
<stop offset="0.279944" stop-color="white" stop-opacity="0"/>
<stop offset="0.72048" stop-color="white" stop-opacity="0"/>
<stop offset="1" stop-color="white"/>
</linearGradient>
<linearGradient id="paint4_linear_1068_442" x1="5.22589e-07" y1="175" x2="320" y2="175" gradientUnits="userSpaceOnUse">
<stop stop-color="white"/>
<stop offset="0.279944" stop-color="white" stop-opacity="0"/>
<stop offset="0.72048" stop-color="white" stop-opacity="0"/>
<stop offset="1" stop-color="white"/>
</linearGradient>
</defs>
</svg>
