<svg width="20.000488" height="20.000000" viewBox="0 0 20.0005 20" fill="none" xmlns="http://www.w3.org/2000/svg" xmlns:xlink="http://www.w3.org/1999/xlink">
	<desc>
			Created with Pixso.
	</desc>
	<defs/>
	<path id="Vector" d="M7.50244 2.25732L8.55768 4.89307C8.83051 5.5752 8.7066 6.35205 8.23633 6.91626L7.66895 7.59668C7.00671 8.39136 7.06079 9.55957 7.79224 10.291L9.70819 12.2087C10.4396 12.9402 11.6089 12.9929 12.4035 12.3306L13.0839 11.7632C13.6483 11.293 14.4249 11.1702 15.1069 11.4429L17.7433 12.4971C18.5027 12.8008 19.0005 13.5361 19.0005 14.354L19 17.1052C19 18.1516 18.1519 19 17.1055 19C8.21075 19 1 11.7893 1 2.89453C1 1.84814 1.84833 1 2.89471 1L5.64551 1C6.46332 1 7.19873 1.4978 7.50244 2.25732Z" stroke="#FFBB4D" stroke-opacity="1.000000" stroke-width="2.000000" stroke-linejoin="round"/>
</svg>
