<svg width="189.287476" height="59.739502" viewBox="0 0 189.287 59.7395" fill="none" xmlns="http://www.w3.org/2000/svg" xmlns:xlink="http://www.w3.org/1999/xlink">
	<desc>
			Created with Pixso.
	</desc>
	<defs/>
	<path id="Vector 6" d="M189.287 4.22168Q177.949 23.001 161.061 28.9089Q147.05 33.8108 131.945 29.2573Q118.901 25.3247 111.504 16.9551Q103.486 7.88208 109.486 2.34399Q115.066 -2.80713 125.592 3.36206Q135.229 9.01025 141.342 19.3252Q148.28 31.0332 145.176 40.9016Q141.459 52.7178 123.927 57.885Q107.033 62.8645 88.4967 54.4734Q77.6044 49.5427 57.4747 34.3975Q38.7224 20.2888 29.5066 16.2471Q14.6046 9.71143 2.11743 15.3145L0.889282 12.5774Q14.5906 6.42944 30.7115 13.4995Q40.2471 17.6816 59.2783 32.0002Q79.1433 46.9463 89.7339 51.7405Q107.254 59.6716 123.079 55.0073Q139.077 50.2922 142.314 40.0015Q145.016 31.4106 138.761 20.8545Q133.043 11.2065 124.075 5.95044Q115.467 0.905518 111.521 4.54834Q107.678 8.09521 113.752 14.9685Q120.584 22.6987 132.811 26.385Q146.981 30.6565 160.071 26.0771Q175.939 20.5259 186.719 2.67114L189.287 4.22168ZM3.43872 13.0776L13.2522 16.812C14.0374 17.1106 14.4194 17.9622 14.1207 18.7473C13.822 19.5325 12.9703 19.9146 12.1853 19.6157L0.969849 15.3479C0.184814 15.0493 -0.197266 14.1975 0.10144 13.4126L4.36926 2.19702C4.66797 1.41211 5.51953 1.03003 6.30469 1.32861C7.08972 1.62744 7.47192 2.479 7.1731 3.26416L3.43872 13.0776Z" fill="#FFBB4D" fill-opacity="1.000000" fill-rule="evenodd"/>
</svg>
